/* XPM */
static char * 010 111 000_xpm[] = {
"64 64 6 1",
" 	c #527D7B",
".	c #87C077",
"+	c #9ED977",
"@	c #C0D470",
"#	c #B7E56B",
"$	c #5A9A72",
"    ............................++++....++++++++........    @@@@",
"    ............................++++....++++++++........    @@@@",
"    ............................++++....++++++++........    @@@@",
"    ............................++++....++++++++........    @@@@",
"        ........++++++++....................................    ",
"        ........++++++++....................................    ",
"        ........++++++++....................................    ",
"        ........++++++++....................................    ",
"####$$$$................++++########++++................$$$$####",
"####$$$$................++++########++++................$$$$####",
"####$$$$................++++########++++................$$$$####",
"####$$$$................++++########++++................$$$$####",
"####$$$$$$$$....++++++++++++########++++++++++++....$$$$$$$$####",
"####$$$$$$$$....++++++++++++########++++++++++++....$$$$$$$$####",
"####$$$$$$$$....++++++++++++########++++++++++++....$$$$$$$$####",
"####$$$$$$$$....++++++++++++########++++++++++++....$$$$$$$$####",
"####$$$$....++++########++++++++############++++++++....$$$$++++",
"####$$$$....++++########++++++++############++++++++....$$$$++++",
"####$$$$....++++########++++++++############++++++++....$$$$++++",
"####$$$$....++++########++++++++############++++++++....$$$$++++",
"########++++++++########++++++++############++++++++....++++++++",
"########++++++++########++++++++############++++++++....++++++++",
"########++++++++########++++++++############++++++++....++++++++",
"########++++++++########++++++++############++++++++....++++++++",
"++++....++++++++++++++++++++++++++++++++++++++++++++++++....++++",
"++++....++++++++++++++++++++++++++++++++++++++++++++++++....++++",
"++++....++++++++++++++++++++++++++++++++++++++++++++++++....++++",
"++++....++++++++++++++++++++++++++++++++++++++++++++++++....++++",
"++++........++++++++....++++++++++++++++........++++........++++",
"++++........++++++++....++++++++++++++++........++++........++++",
"++++........++++++++....++++++++++++++++........++++........++++",
"++++........++++++++....++++++++++++++++........++++........++++",
"++++............................++++....++++++++................",
"++++............................++++....++++++++................",
"++++............................++++....++++++++................",
"++++............................++++....++++++++................",
"................++++++++........................................",
"................++++++++........................................",
"................++++++++........................................",
"................++++++++........................................",
"................................................................",
"................................................................",
"................................................................",
"................................................................",
"................$$$$....$$$$$$$$............$$$$$$$$....$$$$$$$$",
"................$$$$....$$$$$$$$............$$$$$$$$....$$$$$$$$",
"................$$$$....$$$$$$$$............$$$$$$$$....$$$$$$$$",
"................$$$$....$$$$$$$$............$$$$$$$$....$$$$$$$$",
"....$$$$$$$$$$$$$$$$$$$$............$$$$$$$$........$$$$........",
"....$$$$$$$$$$$$$$$$$$$$............$$$$$$$$........$$$$........",
"....$$$$$$$$$$$$$$$$$$$$............$$$$$$$$........$$$$........",
"....$$$$$$$$$$$$$$$$$$$$............$$$$$$$$........$$$$........",
"$$$$$$$$$$$$........$$$$$$$$$$$$$$$$$$$$$$$$$$$$$$$$$$$$$$$$$$$$",
"$$$$$$$$$$$$........$$$$$$$$$$$$$$$$$$$$$$$$$$$$$$$$$$$$$$$$$$$$",
"$$$$$$$$$$$$........$$$$$$$$$$$$$$$$$$$$$$$$$$$$$$$$$$$$$$$$$$$$",
"$$$$$$$$$$$$........$$$$$$$$$$$$$$$$$$$$$$$$$$$$$$$$$$$$$$$$$$$$",
"$$$$$$$$$$$$$$$$$$$$$$$$$$$$$$$$$$$$$$$$$$$$$$$$$$$$$$$$$$$$$$$$",
"$$$$$$$$$$$$$$$$$$$$$$$$$$$$$$$$$$$$$$$$$$$$$$$$$$$$$$$$$$$$$$$$",
"$$$$$$$$$$$$$$$$$$$$$$$$$$$$$$$$$$$$$$$$$$$$$$$$$$$$$$$$$$$$$$$$",
"$$$$$$$$$$$$$$$$$$$$$$$$$$$$$$$$$$$$$$$$$$$$$$$$$$$$$$$$$$$$$$$$",
"$$$$$$$$$$$$$$$$$$$$$$$$$$$$$$$$$$$$$$$$$$$$$$$$$$$$$$$$$$$$$$$$",
"$$$$$$$$$$$$$$$$$$$$$$$$$$$$$$$$$$$$$$$$$$$$$$$$$$$$$$$$$$$$$$$$",
"$$$$$$$$$$$$$$$$$$$$$$$$$$$$$$$$$$$$$$$$$$$$$$$$$$$$$$$$$$$$$$$$",
"$$$$$$$$$$$$$$$$$$$$$$$$$$$$$$$$$$$$$$$$$$$$$$$$$$$$$$$$$$$$$$$$"};
