/* XPM */
static char * 000 111 010_xpm[] = {
"64 64 6 1",
" 	c #C0D470",
".	c #527D7B",
"+	c #B7E56B",
"@	c #9ED977",
"#	c #87C077",
"$	c #5A9A72",
"                                                                ",
"                                                                ",
"                                                                ",
"                                                                ",
"............        ........................        ............",
"............        ........................        ............",
"............        ........................        ............",
"............        ........................        ............",
"++++@@@@####........####@@@@++++++++@@@@####........####@@@@++++",
"++++@@@@####........####@@@@++++++++@@@@####........####@@@@++++",
"++++@@@@####........####@@@@++++++++@@@@####........####@@@@++++",
"++++@@@@####........####@@@@++++++++@@@@####........####@@@@++++",
"++++@@@@@@@@####@@@@@@@@@@@@++++++++@@@@@@@@@@@@####@@@@@@@@++++",
"++++@@@@@@@@####@@@@@@@@@@@@++++++++@@@@@@@@@@@@####@@@@@@@@++++",
"++++@@@@@@@@####@@@@@@@@@@@@++++++++@@@@@@@@@@@@####@@@@@@@@++++",
"++++@@@@@@@@####@@@@@@@@@@@@++++++++@@@@@@@@@@@@####@@@@@@@@++++",
"++++++++####@@@@++++++++@@@@@@@@++++++++++++@@@@@@@@####@@@@@@@@",
"++++++++####@@@@++++++++@@@@@@@@++++++++++++@@@@@@@@####@@@@@@@@",
"++++++++####@@@@++++++++@@@@@@@@++++++++++++@@@@@@@@####@@@@@@@@",
"++++++++####@@@@++++++++@@@@@@@@++++++++++++@@@@@@@@####@@@@@@@@",
"++++++++@@@@@@@@++++++++@@@@@@@@++++++++++++@@@@@@@@####@@@@@@@@",
"++++++++@@@@@@@@++++++++@@@@@@@@++++++++++++@@@@@@@@####@@@@@@@@",
"++++++++@@@@@@@@++++++++@@@@@@@@++++++++++++@@@@@@@@####@@@@@@@@",
"++++++++@@@@@@@@++++++++@@@@@@@@++++++++++++@@@@@@@@####@@@@@@@@",
"@@@@####@@@@@@@@@@@@@@@@@@@@@@@@@@@@@@@@@@@@@@@@@@@@@@@@####@@@@",
"@@@@####@@@@@@@@@@@@@@@@@@@@@@@@@@@@@@@@@@@@@@@@@@@@@@@@####@@@@",
"@@@@####@@@@@@@@@@@@@@@@@@@@@@@@@@@@@@@@@@@@@@@@@@@@@@@@####@@@@",
"@@@@####@@@@@@@@@@@@@@@@@@@@@@@@@@@@@@@@@@@@@@@@@@@@@@@@####@@@@",
"@@@@########@@@@@@@@####@@@@@@@@@@@@@@@@########@@@@########@@@@",
"@@@@########@@@@@@@@####@@@@@@@@@@@@@@@@########@@@@########@@@@",
"@@@@########@@@@@@@@####@@@@@@@@@@@@@@@@########@@@@########@@@@",
"@@@@########@@@@@@@@####@@@@@@@@@@@@@@@@########@@@@########@@@@",
"@@@@############################@@@@####@@@@@@@@################",
"@@@@############################@@@@####@@@@@@@@################",
"@@@@############################@@@@####@@@@@@@@################",
"@@@@############################@@@@####@@@@@@@@################",
"################@@@@@@@@########################################",
"################@@@@@@@@########################################",
"################@@@@@@@@########################################",
"################@@@@@@@@########################################",
"########################@@@@++++++++@@@@########################",
"########################@@@@++++++++@@@@########################",
"########################@@@@++++++++@@@@########################",
"########################@@@@++++++++@@@@########################",
"################@@@@@@@@@@@@++++++++@@@@@@@@@@@@########$$$$$$$$",
"################@@@@@@@@@@@@++++++++@@@@@@@@@@@@########$$$$$$$$",
"################@@@@@@@@@@@@++++++++@@@@@@@@@@@@########$$$$$$$$",
"################@@@@@@@@@@@@++++++++@@@@@@@@@@@@########$$$$$$$$",
"####$$$$####@@@@++++++++@@@@@@@@++++++++++++@@@@@@@@############",
"####$$$$####@@@@++++++++@@@@@@@@++++++++++++@@@@@@@@############",
"####$$$$####@@@@++++++++@@@@@@@@++++++++++++@@@@@@@@############",
"####$$$$####@@@@++++++++@@@@@@@@++++++++++++@@@@@@@@############",
"$$$$$$$$@@@@@@@@++++++++@@@@@@@@++++++++++++@@@@@@@@####$$$$$$$$",
"$$$$$$$$@@@@@@@@++++++++@@@@@@@@++++++++++++@@@@@@@@####$$$$$$$$",
"$$$$$$$$@@@@@@@@++++++++@@@@@@@@++++++++++++@@@@@@@@####$$$$$$$$",
"$$$$$$$$@@@@@@@@++++++++@@@@@@@@++++++++++++@@@@@@@@####$$$$$$$$",
"$$$$####@@@@@@@@@@@@@@@@@@@@@@@@@@@@@@@@@@@@@@@@@@@@@@@@####$$$$",
"$$$$####@@@@@@@@@@@@@@@@@@@@@@@@@@@@@@@@@@@@@@@@@@@@@@@@####$$$$",
"$$$$####@@@@@@@@@@@@@@@@@@@@@@@@@@@@@@@@@@@@@@@@@@@@@@@@####$$$$",
"$$$$####@@@@@@@@@@@@@@@@@@@@@@@@@@@@@@@@@@@@@@@@@@@@@@@@####$$$$",
"$$$$########@@@@@@@@####@@@@@@@@@@@@@@@@########@@@@########$$$$",
"$$$$########@@@@@@@@####@@@@@@@@@@@@@@@@########@@@@########$$$$",
"$$$$########@@@@@@@@####@@@@@@@@@@@@@@@@########@@@@########$$$$",
"$$$$########@@@@@@@@####@@@@@@@@@@@@@@@@########@@@@########$$$$"};
