/* XPM */
static char * box_r_xpm[] = {
"3 19 3 1",
" 	c None",
".	c #000000",
"+	c #FFFFFF",
".  ",
"+. ",
"++.",
"++.",
"++.",
"++.",
"++.",
"++.",
"++.",
"++.",
"++.",
"++.",
"++.",
"++.",
"++.",
"++.",
"++.",
"+. ",
".  "};
