/* XPM */
static char *collectible[] = {
/* columns rows colors chars-per-pixel */
"16 16 4 1 ",
"  c None",
". c #2D2741",
"X c #BB8170",
"o c #F0E0D6",
/* pixels */
"                ",
"                ",
"    .....       ",
"   .XXXXX...    ",
"   .XooooXXX... ",
"   .XoooooooXX. ",
"  .Xoooooooooo. ",
"  .Xoooooooooo. ",
"  .Xooooooooo.  ",
" .Xoooooooooo.  ",
" .Xooooooooo.   ",
" ....ooooooo.   ",
"     ....ooo.   ",
"         ...    ",
"                ",
"                "
};
