/* XPM */
static char *exit[] = {
/* columns rows colors chars-per-pixel */
"16 16 3 1 ",
"  c None",
". c #2D2741",
"X c #BB8170",
/* pixels */
"                ",
"      ...       ",
"      .X.       ",
"  ............  ",
" .XXXXXXXXXXX.. ",
" .XXXXXXXXXXXX..",
" .XXXXXXXXXXXXX.",
" .XXXXXXXXXXXX..",
" .XXXXXXXXXXX.. ",
"  ............  ",
"      ...       ",
"      .X.       ",
"      .X.       ",
"      .X.       ",
"      .X.       ",
"      ...       "
};
