/* XPM */
static char *player_face[] = {
/* columns rows colors chars-per-pixel */
"16 16 4 1 ",
"  c None",
". c #6E1E4B",
"X c #E0B683",
"o c #E0F8CF",
/* pixels */
"   .       .    ",
"  .X.  ....X.   ",
"  .oX..XXX.oX.  ",
"  .oXXXXX.XoX.  ",
"  .XX.XXXX.XX.  ",
"  .XX.XXXX.XX.  ",
"  .XXoo..ooXX.  ",
"  .oooooooooo.  ",
" .X.oooooooo.   ",
" .X.........X.  ",
" .Xoo.ooooo.Xo. ",
"  .oo........o. ",
"   ......ooo..  ",
"   .ooooo....   ",
"   .......oX.   ",
"    ........    "
};
