/* XPM */
static char * face_xpm[] = {
"32 32 4 1",
" 	c None",
".	c #6E1E4B",
"+	c #E0B683",
"@	c #E0F8CF",
"      ..              ..        ",
"      ..              ..        ",
"    ..++..    ........++..      ",
"    ..++..    ........++..      ",
"    ..@@++....++++++..@@++..    ",
"    ..@@++....++++++..@@++..    ",
"    ..@@++++++++++..++@@++..    ",
"    ..@@++++++++++..++@@++..    ",
"    ..++++..++++++++..++++..    ",
"    ..++++..++++++++..++++..    ",
"    ..++++..++++++++..++++..    ",
"    ..++++..++++++++..++++..    ",
"    ..++++@@@@....@@@@++++..    ",
"    ..++++@@@@....@@@@++++..    ",
"    ..@@@@@@@@@@@@@@@@@@@@..    ",
"    ..@@@@@@@@@@@@@@@@@@@@..    ",
"  ..++..@@@@@@@@@@@@@@@@..      ",
"  ..++..@@@@@@@@@@@@@@@@..      ",
"  ..++..................++..    ",
"  ..++..................++..    ",
"  ..++@@@@..@@@@@@@@@@..++@@..  ",
"  ..++@@@@..@@@@@@@@@@..++@@..  ",
"    ..@@@@................@@..  ",
"    ..@@@@................@@..  ",
"      ............@@@@@@....    ",
"      ............@@@@@@....    ",
"      ..@@@@@@@@@@........      ",
"      ..@@@@@@@@@@........      ",
"      ..............@@++..      ",
"      ..............@@++..      ",
"        ................        ",
"        ................        "};
