/* XPM */
static char * player_u0_xpm[] = {
"64 64 4 1",
" 	c None",
".	c #6E1E4B",
"+	c #E0B683",
"@	c #E0F8CF",
"                ....                            ....            ",
"                ....                            ....            ",
"                ....                            ....            ",
"                ....                            ....            ",
"            ....++++....                    ....++++....        ",
"            ....++++....                    ....++++....        ",
"            ....++++....                    ....++++....        ",
"            ....++++....                    ....++++....        ",
"        ....++++++++++++....................++++++++....        ",
"        ....++++++++++++....................++++++++....        ",
"        ....++++++++++++....................++++++++....        ",
"        ....++++++++++++....................++++++++....        ",
"        ....++++++++++++++++++++++++++++++++++++++++....        ",
"        ....++++++++++++++++++++++++++++++++++++++++....        ",
"        ....++++++++++++++++++++++++++++++++++++++++....        ",
"        ....++++++++++++++++++++++++++++++++++++++++....        ",
"        ....++++++++++++++++++++++++++++++++++++++++....        ",
"        ....++++++++++++++++++++++++++++++++++++++++....        ",
"        ....++++++++++++++++++++++++++++++++++++++++....        ",
"        ....++++++++++++++++++++++++++++++++++++++++....        ",
"        ....++++++++++++............++++++++++++++++....        ",
"        ....++++++++++++............++++++++++++++++....        ",
"        ....++++++++++++............++++++++++++++++....        ",
"        ....++++++++++++............++++++++++++++++....        ",
"        ....++++++++....@@@@@@@@@@@@....++++++++++++....        ",
"        ....++++++++....@@@@@@@@@@@@....++++++++++++....        ",
"        ....++++++++....@@@@@@@@@@@@....++++++++++++....        ",
"        ....++++++++....@@@@@@@@@@@@....++++++++++++....        ",
"            ........@@@@@@@@@@@@@@@@@@@@....++++....            ",
"            ........@@@@@@@@@@@@@@@@@@@@....++++....            ",
"            ........@@@@@@@@@@@@@@@@@@@@....++++....            ",
"            ........@@@@@@@@@@@@@@@@@@@@....++++....            ",
"            ........@@@@@@@@@@@@@@@@@@@@........++++....        ",
"            ........@@@@@@@@@@@@@@@@@@@@........++++....        ",
"            ........@@@@@@@@@@@@@@@@@@@@........++++....        ",
"            ........@@@@@@@@@@@@@@@@@@@@........++++....        ",
"        ....++++........@@@@@@@@@@@@++++++++....++++@@@@....    ",
"        ....++++........@@@@@@@@@@@@++++++++....++++@@@@....    ",
"        ....++++........@@@@@@@@@@@@++++++++....++++@@@@....    ",
"        ....++++........@@@@@@@@@@@@++++++++....++++@@@@....    ",
"        ....++++........++++++++++++++++++++........@@@@....    ",
"        ....++++........++++++++++++++++++++........@@@@....    ",
"        ....++++........++++++++++++++++++++........@@@@....    ",
"        ....++++........++++++++++++++++++++........@@@@....    ",
"            ............++++++++++++++++++++............        ",
"            ............++++++++++++++++++++............        ",
"            ............++++++++++++++++++++............        ",
"            ............++++++++++++++++++++............        ",
"            ....@@@@....++++++++++++++++++++....@@@@....        ",
"            ....@@@@....++++++++++++++++++++....@@@@....        ",
"            ....@@@@....++++++++++++++++++++....@@@@....        ",
"            ....@@@@....++++++++++++++++++++....@@@@....        ",
"            ................++++++++++++................        ",
"            ................++++++++++++................        ",
"            ................++++++++++++................        ",
"            ................++++++++++++................        ",
"        ........@@@@@@@@................................        ",
"        ........@@@@@@@@................................        ",
"        ........@@@@@@@@................................        ",
"        ........@@@@@@@@................................        ",
"            ........................................            ",
"            ........................................            ",
"            ........................................            ",
"            ........................................            "};
