/* XPM */
static char * 0_xpm[] = {
"64 64 2 1",
" 	c #C0D470",
".	c #A4C263",
"                                                                ",
"                                                                ",
"                                                                ",
"                                                                ",
"                                                                ",
"                                                                ",
"                                                                ",
"                                                                ",
"                                                                ",
"                                                                ",
"                                                                ",
"                                                                ",
"                                                ....            ",
"                                                ....            ",
"                                                ....            ",
"                                                ....            ",
"                                            ....                ",
"                                            ....                ",
"                                            ....                ",
"                                            ....                ",
"                                            ....                ",
"                                            ....                ",
"                                            ....                ",
"                                            ....                ",
"                ....                                            ",
"                ....                                            ",
"                ....                                            ",
"                ....                                            ",
"                    ....                                        ",
"                    ....                                        ",
"                    ....                                        ",
"                    ....                                        ",
"                    ....                ....                    ",
"                    ....                ....                    ",
"                    ....                ....                    ",
"                    ....                ....                    ",
"                                    ....                        ",
"                                    ....                        ",
"                                    ....                        ",
"                                    ....                        ",
"                                    ....                        ",
"                                    ....                        ",
"                                    ....                        ",
"                                    ....                        ",
"                                                                ",
"                                                                ",
"                                                                ",
"                                                                ",
"                                                                ",
"                                                                ",
"                                                                ",
"                                                                ",
"                                                                ",
"                                                                ",
"                                                                ",
"                                                                ",
"                                                                ",
"                                                                ",
"                                                                ",
"                                                                ",
"                                                                ",
"                                                                ",
"                                                                ",
"                                                                "};
