/* XPM */
static char * tile_1[] = {
"64 64 7 1",
" 	c #C0D470",
".	c #5F7A79",
"+	c #97BB8E",
"@	c #AED499",
"#	c #C2E09A",
"$	c #6E967C",
"%	c #B7C973",
"                                                                ",
"                                                                ",
"                                                                ",
"                                                                ",
"                    ........................                    ",
"                    ........................                    ",
"                    ........................                    ",
"                    ........................                    ",
"            ........++++@@@@########@@@@++++........            ",
"            ........++++@@@@########@@@@++++........            ",
"            ........++++@@@@########@@@@++++........            ",
"            ........++++@@@@########@@@@++++........            ",
"        ....++++@@@@@@@@@@@@########@@@@@@@@@@@@++++....        ",
"        ....++++@@@@@@@@@@@@########@@@@@@@@@@@@++++....        ",
"        ....++++@@@@@@@@@@@@########@@@@@@@@@@@@++++....        ",
"        ....++++@@@@@@@@@@@@########@@@@@@@@@@@@++++....        ",
"    ....++++@@@@########@@@@@@@@############@@@@@@@@++++....    ",
"    ....++++@@@@########@@@@@@@@############@@@@@@@@++++....    ",
"    ....++++@@@@########@@@@@@@@############@@@@@@@@++++....    ",
"    ....++++@@@@########@@@@@@@@############@@@@@@@@++++....    ",
"    ....@@@@@@@@########@@@@@@@@############@@@@@@@@++++....    ",
"    ....@@@@@@@@########@@@@@@@@############@@@@@@@@++++....    ",
"    ....@@@@@@@@########@@@@@@@@############@@@@@@@@++++....    ",
"    ....@@@@@@@@########@@@@@@@@############@@@@@@@@++++....    ",
"....++++@@@@@@@@@@@@@@@@@@@@@@@@@@@@@@@@@@@@@@@@@@@@@@@@++++....",
"....++++@@@@@@@@@@@@@@@@@@@@@@@@@@@@@@@@@@@@@@@@@@@@@@@@++++....",
"....++++@@@@@@@@@@@@@@@@@@@@@@@@@@@@@@@@@@@@@@@@@@@@@@@@++++....",
"....++++@@@@@@@@@@@@@@@@@@@@@@@@@@@@@@@@@@@@@@@@@@@@@@@@++++....",
"....++++++++@@@@@@@@++++@@@@@@@@@@@@@@@@++++++++@@@@++++++++....",
"....++++++++@@@@@@@@++++@@@@@@@@@@@@@@@@++++++++@@@@++++++++....",
"....++++++++@@@@@@@@++++@@@@@@@@@@@@@@@@++++++++@@@@++++++++....",
"....++++++++@@@@@@@@++++@@@@@@@@@@@@@@@@++++++++@@@@++++++++....",
"....++++++++++++++++++++++++++++@@@@++++@@@@@@@@++++++++....    ",
"....++++++++++++++++++++++++++++@@@@++++@@@@@@@@++++++++....    ",
"....++++++++++++++++++++++++++++@@@@++++@@@@@@@@++++++++....    ",
"....++++++++++++++++++++++++++++@@@@++++@@@@@@@@++++++++....    ",
"    ....++++++++@@@@@@@@++++++++++++++++++++++++++++++++++++....",
"    ....++++++++@@@@@@@@++++++++++++++++++++++++++++++++++++....",
"    ....++++++++@@@@@@@@++++++++++++++++++++++++++++++++++++....",
"    ....++++++++@@@@@@@@++++++++++++++++++++++++++++++++++++....",
"....$$$$++++++++++++++++++++++++++++++++++++++++++++++++$$$$....",
"....$$$$++++++++++++++++++++++++++++++++++++++++++++++++$$$$....",
"....$$$$++++++++++++++++++++++++++++++++++++++++++++++++$$$$....",
"....$$$$++++++++++++++++++++++++++++++++++++++++++++++++$$$$....",
"....$$$$$$$$++++$$$$++++$$$$$$$$++++++++++++$$$$$$$$$$$$$$$$....",
"....$$$$$$$$++++$$$$++++$$$$$$$$++++++++++++$$$$$$$$$$$$$$$$....",
"....$$$$$$$$++++$$$$++++$$$$$$$$++++++++++++$$$$$$$$$$$$$$$$....",
"....$$$$$$$$++++$$$$++++$$$$$$$$++++++++++++$$$$$$$$$$$$$$$$....",
"....$$$$$$$$$$$$$$$$$$$$++++++++++++$$$$$$$$++++++++$$$$$$$$....",
"....$$$$$$$$$$$$$$$$$$$$++++++++++++$$$$$$$$++++++++$$$$$$$$....",
"....$$$$$$$$$$$$$$$$$$$$++++++++++++$$$$$$$$++++++++$$$$$$$$....",
"....$$$$$$$$$$$$$$$$$$$$++++++++++++$$$$$$$$++++++++$$$$$$$$....",
"%%%%....$$$$++++++++$$$$$$$$$$$$$$$$$$$$$$$$$$$$$$$$$$$$....%%%%",
"%%%%....$$$$++++++++$$$$$$$$$$$$$$$$$$$$$$$$$$$$$$$$$$$$....%%%%",
"%%%%....$$$$++++++++$$$$$$$$$$$$$$$$$$$$$$$$$$$$$$$$$$$$....%%%%",
"%%%%....$$$$++++++++$$$$$$$$$$$$$$$$$$$$$$$$$$$$$$$$$$$$....%%%%",
"    %%%%$$$$$$$$$$$$$$$$$$$$$$$$$$$$$$$$$$$$$$$$$$$$$$$$%%%%%%%%",
"    %%%%$$$$$$$$$$$$$$$$$$$$$$$$$$$$$$$$$$$$$$$$$$$$$$$$%%%%%%%%",
"    %%%%$$$$$$$$$$$$$$$$$$$$$$$$$$$$$$$$$$$$$$$$$$$$$$$$%%%%%%%%",
"    %%%%$$$$$$$$$$$$$$$$$$$$$$$$$$$$$$$$$$$$$$$$$$$$$$$$%%%%%%%%",
"    %%%%%%%%%%%%$$$$$$$$$$$$$$$$$$$$$$$$$$$$$$$$%%%%%%%%%%%%    ",
"    %%%%%%%%%%%%$$$$$$$$$$$$$$$$$$$$$$$$$$$$$$$$%%%%%%%%%%%%    ",
"    %%%%%%%%%%%%$$$$$$$$$$$$$$$$$$$$$$$$$$$$$$$$%%%%%%%%%%%%    ",
"    %%%%%%%%%%%%$$$$$$$$$$$$$$$$$$$$$$$$$$$$$$$$%%%%%%%%%%%%    "};
