/* XPM */
static char * c0_xpm[] = {
"64 64 10 1",
" 	c None",
".	c #527D7B",
"+	c #804564",
"@	c #70AC74",
"#	c #5A9A72",
"$	c #B64D6F",
"%	c #D16978",
"&	c #C25A73",
"*	c #EC9191",
"=	c #9A3C77",
"                                                                ",
"                                                                ",
"                                                                ",
"                                                                ",
"                                                                ",
"                                                                ",
"                                                                ",
"                                                                ",
"                                                                ",
"                                                                ",
"                                                                ",
"                                                                ",
"                                        ............            ",
"                                        ............            ",
"                                        ............            ",
"                                        ............            ",
"                            ++++    ....@@@@@@@@....            ",
"                            ++++    ....@@@@@@@@....            ",
"                            ++++    ....@@@@@@@@....            ",
"                            ++++    ....@@@@@@@@....            ",
"                            ++++....########@@@@....            ",
"                            ++++....########@@@@....            ",
"                            ++++....########@@@@....            ",
"                            ++++....########@@@@....            ",
"                $$$$$$$$$$$$++++................                ",
"                $$$$$$$$$$$$++++................                ",
"                $$$$$$$$$$$$++++................                ",
"                $$$$$$$$$$$$++++................                ",
"            $$$$%%%%%%%%%%%%$$$$$$$$&&&&&&&&$$$$                ",
"            $$$$%%%%%%%%%%%%$$$$$$$$&&&&&&&&$$$$                ",
"            $$$$%%%%%%%%%%%%$$$$$$$$&&&&&&&&$$$$                ",
"            $$$$%%%%%%%%%%%%$$$$$$$$&&&&&&&&$$$$                ",
"        $$$$%%%%****%%%%%%%%%%%%&&&&&&&&&&&&&&&&$$$$            ",
"        $$$$%%%%****%%%%%%%%%%%%&&&&&&&&&&&&&&&&$$$$            ",
"        $$$$%%%%****%%%%%%%%%%%%&&&&&&&&&&&&&&&&$$$$            ",
"        $$$$%%%%****%%%%%%%%%%%%&&&&&&&&&&&&&&&&$$$$            ",
"        $$$$%%%%%%%%%%%%****%%%%&&&&&&&&&&&&&&&&====            ",
"        $$$$%%%%%%%%%%%%****%%%%&&&&&&&&&&&&&&&&====            ",
"        $$$$%%%%%%%%%%%%****%%%%&&&&&&&&&&&&&&&&====            ",
"        $$$$%%%%%%%%%%%%****%%%%&&&&&&&&&&&&&&&&====            ",
"        $$$$%%%%%%%%%%%%%%%%%%%%&&&&&&&&&&&&&&&&====            ",
"        $$$$%%%%%%%%%%%%%%%%%%%%&&&&&&&&&&&&&&&&====            ",
"        $$$$%%%%%%%%%%%%%%%%%%%%&&&&&&&&&&&&&&&&====            ",
"        $$$$%%%%%%%%%%%%%%%%%%%%&&&&&&&&&&&&&&&&====            ",
"        ====%%%%%%%%%%%%%%%%&&&&&&&&&&&&&&&&&&&&====            ",
"        ====%%%%%%%%%%%%%%%%&&&&&&&&&&&&&&&&&&&&====            ",
"        ====%%%%%%%%%%%%%%%%&&&&&&&&&&&&&&&&&&&&====            ",
"        ====%%%%%%%%%%%%%%%%&&&&&&&&&&&&&&&&&&&&====            ",
"            ====&&&&&&&&&&&&&&&&&&&&&&&&&&&&====                ",
"            ====&&&&&&&&&&&&&&&&&&&&&&&&&&&&====                ",
"            ====&&&&&&&&&&&&&&&&&&&&&&&&&&&&====                ",
"            ====&&&&&&&&&&&&&&&&&&&&&&&&&&&&====                ",
"                ====&&&&&&&&====&&&&&&&&====                    ",
"                ====&&&&&&&&====&&&&&&&&====                    ",
"                ====&&&&&&&&====&&&&&&&&====                    ",
"                ====&&&&&&&&====&&&&&&&&====                    ",
"                    ========    ========                        ",
"                    ========    ========                        ",
"                    ========    ========                        ",
"                    ========    ========                        ",
"                                                                ",
"                                                                ",
"                                                                ",
"                                                                "};
