/* XPM */
static char * c1_xpm[] = {
"64 64 11 1",
" 	c #C0D470",
".	c #F3F4E7",
"+	c #5F7A79",
"@	c #754C60",
"#	c #82A884",
"$	c #6E967C",
"%	c #A35B70",
"&	c #BD757E",
"*	c #AF6776",
"=	c #D99A9A",
"-	c #8A4A70",
"                                                                ",
"                                                                ",
"                                                                ",
"                                                                ",
"                                        ................        ",
"                                        ................        ",
"                                        ................        ",
"                                        ................        ",
"                        ................++++++++++++....        ",
"                        ................++++++++++++....        ",
"                        ................++++++++++++....        ",
"                        ................++++++++++++....        ",
"                        ....@@@@....++++########++++....        ",
"                        ....@@@@....++++########++++....        ",
"                        ....@@@@....++++########++++....        ",
"                        ....@@@@....++++########++++....        ",
"                ............@@@@++++$$$$$$$$####++++....        ",
"                ............@@@@++++$$$$$$$$####++++....        ",
"                ............@@@@++++$$$$$$$$####++++....        ",
"                ............@@@@++++$$$$$$$$####++++....        ",
"            ....%%%%%%%%%%%%@@@@++++++++++++++++....            ",
"            ....%%%%%%%%%%%%@@@@++++++++++++++++....            ",
"            ....%%%%%%%%%%%%@@@@++++++++++++++++....            ",
"            ....%%%%%%%%%%%%@@@@++++++++++++++++....            ",
"        ....%%%%&&&&&&&&&&&&%%%%%%%%********%%%%....            ",
"        ....%%%%&&&&&&&&&&&&%%%%%%%%********%%%%....            ",
"        ....%%%%&&&&&&&&&&&&%%%%%%%%********%%%%....            ",
"        ....%%%%&&&&&&&&&&&&%%%%%%%%********%%%%....            ",
"    ....%%%%&&&&====&&&&&&&&&&&&****************%%%%....        ",
"    ....%%%%&&&&====&&&&&&&&&&&&****************%%%%....        ",
"    ....%%%%&&&&====&&&&&&&&&&&&****************%%%%....        ",
"    ....%%%%&&&&====&&&&&&&&&&&&****************%%%%....        ",
"    ....%%%%&&&&&&&&&&&&====&&&&****************----....        ",
"    ....%%%%&&&&&&&&&&&&====&&&&****************----....        ",
"    ....%%%%&&&&&&&&&&&&====&&&&****************----....        ",
"    ....%%%%&&&&&&&&&&&&====&&&&****************----....        ",
"    ....%%%%&&&&&&&&&&&&&&&&&&&&****************----....        ",
"    ....%%%%&&&&&&&&&&&&&&&&&&&&****************----....        ",
"    ....%%%%&&&&&&&&&&&&&&&&&&&&****************----....        ",
"    ....%%%%&&&&&&&&&&&&&&&&&&&&****************----....        ",
"    ....----&&&&&&&&&&&&&&&&********************----....        ",
"    ....----&&&&&&&&&&&&&&&&********************----....        ",
"    ....----&&&&&&&&&&&&&&&&********************----....        ",
"    ....----&&&&&&&&&&&&&&&&********************----....        ",
"        ....----****************************----....            ",
"        ....----****************************----....            ",
"        ....----****************************----....            ",
"        ....----****************************----....            ",
"            ....----********----********----....                ",
"            ....----********----********----....                ",
"            ....----********----********----....                ",
"            ....----********----********----....                ",
"                ....--------....--------....                    ",
"                ....--------....--------....                    ",
"                ....--------....--------....                    ",
"                ....--------....--------....                    ",
"                    ........    ........                        ",
"                    ........    ........                        ",
"                    ........    ........                        ",
"                    ........    ........                        ",
"                                                                ",
"                                                                ",
"                                                                ",
"                                                                "};
