/* XPM */
static char * collectible_xpm[] = {
"64 64 4 1",
" 	c #C0D470",
".	c #2D2741",
"+	c #BB8170",
"@	c #F0E0D6",
"                                                                ",
"                                                                ",
"                                                                ",
"                                                                ",
"                                                                ",
"                                                                ",
"                                                                ",
"                                                                ",
"                ....................                            ",
"                ....................                            ",
"                ....................                            ",
"                ....................                            ",
"            ....++++++++++++++++++++............                ",
"            ....++++++++++++++++++++............                ",
"            ....++++++++++++++++++++............                ",
"            ....++++++++++++++++++++............                ",
"            ....++++@@@@@@@@@@@@@@@@++++++++++++............    ",
"            ....++++@@@@@@@@@@@@@@@@++++++++++++............    ",
"            ....++++@@@@@@@@@@@@@@@@++++++++++++............    ",
"            ....++++@@@@@@@@@@@@@@@@++++++++++++............    ",
"            ....++++@@@@@@@@@@@@@@@@@@@@@@@@@@@@++++++++....    ",
"            ....++++@@@@@@@@@@@@@@@@@@@@@@@@@@@@++++++++....    ",
"            ....++++@@@@@@@@@@@@@@@@@@@@@@@@@@@@++++++++....    ",
"            ....++++@@@@@@@@@@@@@@@@@@@@@@@@@@@@++++++++....    ",
"        ....++++@@@@@@@@@@@@@@@@@@@@@@@@@@@@@@@@@@@@@@@@....    ",
"        ....++++@@@@@@@@@@@@@@@@@@@@@@@@@@@@@@@@@@@@@@@@....    ",
"        ....++++@@@@@@@@@@@@@@@@@@@@@@@@@@@@@@@@@@@@@@@@....    ",
"        ....++++@@@@@@@@@@@@@@@@@@@@@@@@@@@@@@@@@@@@@@@@....    ",
"        ....++++@@@@@@@@@@@@@@@@@@@@@@@@@@@@@@@@@@@@@@@@....    ",
"        ....++++@@@@@@@@@@@@@@@@@@@@@@@@@@@@@@@@@@@@@@@@....    ",
"        ....++++@@@@@@@@@@@@@@@@@@@@@@@@@@@@@@@@@@@@@@@@....    ",
"        ....++++@@@@@@@@@@@@@@@@@@@@@@@@@@@@@@@@@@@@@@@@....    ",
"        ....++++@@@@@@@@@@@@@@@@@@@@@@@@@@@@@@@@@@@@....        ",
"        ....++++@@@@@@@@@@@@@@@@@@@@@@@@@@@@@@@@@@@@....        ",
"        ....++++@@@@@@@@@@@@@@@@@@@@@@@@@@@@@@@@@@@@....        ",
"        ....++++@@@@@@@@@@@@@@@@@@@@@@@@@@@@@@@@@@@@....        ",
"    ....++++@@@@@@@@@@@@@@@@@@@@@@@@@@@@@@@@@@@@@@@@....        ",
"    ....++++@@@@@@@@@@@@@@@@@@@@@@@@@@@@@@@@@@@@@@@@....        ",
"    ....++++@@@@@@@@@@@@@@@@@@@@@@@@@@@@@@@@@@@@@@@@....        ",
"    ....++++@@@@@@@@@@@@@@@@@@@@@@@@@@@@@@@@@@@@@@@@....        ",
"    ....++++@@@@@@@@@@@@@@@@@@@@@@@@@@@@@@@@@@@@....            ",
"    ....++++@@@@@@@@@@@@@@@@@@@@@@@@@@@@@@@@@@@@....            ",
"    ....++++@@@@@@@@@@@@@@@@@@@@@@@@@@@@@@@@@@@@....            ",
"    ....++++@@@@@@@@@@@@@@@@@@@@@@@@@@@@@@@@@@@@....            ",
"    ................@@@@@@@@@@@@@@@@@@@@@@@@@@@@....            ",
"    ................@@@@@@@@@@@@@@@@@@@@@@@@@@@@....            ",
"    ................@@@@@@@@@@@@@@@@@@@@@@@@@@@@....            ",
"    ................@@@@@@@@@@@@@@@@@@@@@@@@@@@@....            ",
"                    ................@@@@@@@@@@@@....            ",
"                    ................@@@@@@@@@@@@....            ",
"                    ................@@@@@@@@@@@@....            ",
"                    ................@@@@@@@@@@@@....            ",
"                                    ............                ",
"                                    ............                ",
"                                    ............                ",
"                                    ............                ",
"                                                                ",
"                                                                ",
"                                                                ",
"                                                                ",
"                                                                ",
"                                                                ",
"                                                                ",
"                                                                "};
