/* XPM */
static char * e_xpm[] = {
"64 64 3 1",
" 	c None",
".	c #2D2741",
"+	c #BB8170",
"                                                                ",
"                                                                ",
"                                                                ",
"                                                                ",
"                        ............                            ",
"                        ............                            ",
"                        ............                            ",
"                        ............                            ",
"                        ....++++....                            ",
"                        ....++++....                            ",
"                        ....++++....                            ",
"                        ....++++....                            ",
"        ................................................        ",
"        ................................................        ",
"        ................................................        ",
"        ................................................        ",
"    ....++++++++++++++++++++++++++++++++++++++++++++........    ",
"    ....++++++++++++++++++++++++++++++++++++++++++++........    ",
"    ....++++++++++++++++++++++++++++++++++++++++++++........    ",
"    ....++++++++++++++++++++++++++++++++++++++++++++........    ",
"    ....++++++++++++++++++++++++++++++++++++++++++++++++........",
"    ....++++++++++++++++++++++++++++++++++++++++++++++++........",
"    ....++++++++++++++++++++++++++++++++++++++++++++++++........",
"    ....++++++++++++++++++++++++++++++++++++++++++++++++........",
"    ....++++++++++++++++++++++++++++++++++++++++++++++++++++....",
"    ....++++++++++++++++++++++++++++++++++++++++++++++++++++....",
"    ....++++++++++++++++++++++++++++++++++++++++++++++++++++....",
"    ....++++++++++++++++++++++++++++++++++++++++++++++++++++....",
"    ....++++++++++++++++++++++++++++++++++++++++++++++++........",
"    ....++++++++++++++++++++++++++++++++++++++++++++++++........",
"    ....++++++++++++++++++++++++++++++++++++++++++++++++........",
"    ....++++++++++++++++++++++++++++++++++++++++++++++++........",
"    ....++++++++++++++++++++++++++++++++++++++++++++........    ",
"    ....++++++++++++++++++++++++++++++++++++++++++++........    ",
"    ....++++++++++++++++++++++++++++++++++++++++++++........    ",
"    ....++++++++++++++++++++++++++++++++++++++++++++........    ",
"        ................................................        ",
"        ................................................        ",
"        ................................................        ",
"        ................................................        ",
"                        ............                            ",
"                        ............                            ",
"                        ............                            ",
"                        ............                            ",
"                        ....++++....                            ",
"                        ....++++....                            ",
"                        ....++++....                            ",
"                        ....++++....                            ",
"                        ....++++....                            ",
"                        ....++++....                            ",
"                        ....++++....                            ",
"                        ....++++....                            ",
"                        ....++++....                            ",
"                        ....++++....                            ",
"                        ....++++....                            ",
"                        ....++++....                            ",
"                        ....++++....                            ",
"                        ....++++....                            ",
"                        ....++++....                            ",
"                        ....++++....                            ",
"                        ............                            ",
"                        ............                            ",
"                        ............                            ",
"                        ............                            "};
