/* XPM */
static char * exit_xpm[] = {
"32 32 3 1",
" 	c None",
".	c #2D2741",
"+	c #BB8170",
"                                ",
"                                ",
"            ......              ",
"            ......              ",
"            ..++..              ",
"            ..++..              ",
"    ........................    ",
"    ........................    ",
"  ..++++++++++++++++++++++....  ",
"  ..++++++++++++++++++++++....  ",
"  ..++++++++++++++++++++++++....",
"  ..++++++++++++++++++++++++....",
"  ..++++++++++++++++++++++++++..",
"  ..++++++++++++++++++++++++++..",
"  ..++++++++++++++++++++++++....",
"  ..++++++++++++++++++++++++....",
"  ..++++++++++++++++++++++....  ",
"  ..++++++++++++++++++++++....  ",
"    ........................    ",
"    ........................    ",
"            ......              ",
"            ......              ",
"            ..++..              ",
"            ..++..              ",
"            ..++..              ",
"            ..++..              ",
"            ..++..              ",
"            ..++..              ",
"            ..++..              ",
"            ..++..              ",
"            ......              ",
"            ......              "};
