/* XPM */
static char * exit_xpm[] = {
"64 64 3 1",
" 	c #C0D470",
".	c #2D2741",
"+	c #BB8170",
"                                                                ",
"                                                                ",
"                                                                ",
"                                                                ",
"                        ............                            ",
"                        ............                            ",
"                        ............                            ",
"                        ............                            ",
"                        ....++++....                            ",
"                        ....++++....                            ",
"                        ....++++....                            ",
"                        ....++++....                            ",
"        ................................................        ",
"        ................................................        ",
"        ................................................        ",
"        ................................................        ",
"    ....++++++++++++++++++++++++++++++++++++++++++++........    ",
"    ....++++++++++++++++++++++++++++++++++++++++++++........    ",
"    ....++++++++++++++++++++++++++++++++++++++++++++........    ",
"    ....++++++++++++++++++++++++++++++++++++++++++++........    ",
"    ....++++++++++++++++++++++++++++++++++++++++++++++++........",
"    ....++++++++++++++++++++++++++++++++++++++++++++++++........",
"    ....++++++++++++++++++++++++++++++++++++++++++++++++........",
"    ....++++++++++++++++++++++++++++++++++++++++++++++++........",
"    ....++++++++++++++++++++++++++++++++++++++++++++++++++++....",
"    ....++++++++++++++++++++++++++++++++++++++++++++++++++++....",
"    ....++++++++++++++++++++++++++++++++++++++++++++++++++++....",
"    ....++++++++++++++++++++++++++++++++++++++++++++++++++++....",
"    ....++++++++++++++++++++++++++++++++++++++++++++++++........",
"    ....++++++++++++++++++++++++++++++++++++++++++++++++........",
"    ....++++++++++++++++++++++++++++++++++++++++++++++++........",
"    ....++++++++++++++++++++++++++++++++++++++++++++++++........",
"    ....++++++++++++++++++++++++++++++++++++++++++++........    ",
"    ....++++++++++++++++++++++++++++++++++++++++++++........    ",
"    ....++++++++++++++++++++++++++++++++++++++++++++........    ",
"    ....++++++++++++++++++++++++++++++++++++++++++++........    ",
"        ................................................        ",
"        ................................................        ",
"        ................................................        ",
"        ................................................        ",
"                        ............                            ",
"                        ............                            ",
"                        ............                            ",
"                        ............                            ",
"                        ....++++....                            ",
"                        ....++++....                            ",
"                        ....++++....                            ",
"                        ....++++....                            ",
"                        ....++++....                            ",
"                        ....++++....                            ",
"                        ....++++....                            ",
"                        ....++++....                            ",
"                        ....++++....                            ",
"                        ....++++....                            ",
"                        ....++++....                            ",
"                        ....++++....                            ",
"                        ....++++....                            ",
"                        ....++++....                            ",
"                        ....++++....                            ",
"                        ....++++....                            ",
"                        ............                            ",
"                        ............                            ",
"                        ............                            ",
"                        ............                            "};
