/* XPM */
static char * h_xpm[] = {
"12 9 65 1",
" 	c None",
".	c #AF6876",
"+	c #AF6776",
"@	c #A35B70",
"#	c #BE7E85",
"$	c #C4868A",
"%	c #C28288",
"&	c #BE7B83",
"*	c #B8737E",
"=	c #AD6575",
"-	c #AC6575",
";	c #AB6475",
">	c #A15C73",
",	c #C5898C",
"'	c #DBA5A0",
")	c #DAA09D",
"!	c #CE8E91",
"~	c #BC7881",
"{	c #B36B78",
"]	c #B8707B",
"^	c #BA727C",
"/	c #B66F7B",
"(	c #A05D75",
"_	c #8B4B70",
":	c #AA6374",
"<	c #C28489",
"[	c #DDA4A0",
"}	c #DA9D9B",
"|	c #CB898D",
"1	c #BD7780",
"2	c #BC747D",
"3	c #BF777F",
"4	c #B9727D",
"5	c #A05D76",
"6	c #A55D71",
"7	c #BB7983",
"8	c #D19294",
"9	c #CB8A8D",
"0	c #C07981",
"a	c #BC747E",
"b	c #BB737D",
"c	c #BD757E",
"d	c #B66F7C",
"e	c #9F5C75",
"f	c #B26F7C",
"g	c #BC7983",
"h	c #BD7881",
"i	c #B9717B",
"j	c #B26C7B",
"k	c #A46077",
"l	c #985774",
"m	c #A76073",
"n	c #B06978",
"o	c #B46E7B",
"p	c #AE6878",
"q	c #AF6878",
"r	c #B46D7B",
"s	c #A76377",
"t	c #915072",
"u	c #9E5A73",
"v	c #9D5A74",
"w	c #995773",
"x	c #9C5A74",
"y	c #995774",
"z	c #8A4A70",
"  ..+  @@@  ",
" #$%&*=-=;> ",
".,')!~{]^/(_",
":<[}|1]2345_",
"67890abcade_",
" fgh2]i2jkl ",
"  mnopqrst  ",
"   uvwwxy   ",
"    zzzz    "};
