/* XPM */
static char * r_xpm[] = {
"64 64 7 1",
" 	c None",
".	c #90625D",
"+	c #B68962",
"@	c #754C60",
"#	c #9DA89A",
"$	c #C1C8B9",
"%	c #6B7470",
"                                                                ",
"                                                                ",
"                                                                ",
"                                                                ",
"                                                        ........",
"                                                        ........",
"                                                        ........",
"                                                        ........",
"                                                    ....++++....",
"                                                    ....++++....",
"                                                    ....++++....",
"                                                    ....++++....",
"                                                ....++++....    ",
"                                                ....++++....    ",
"                                                ....++++....    ",
"                                                ....++++....    ",
"                                            ....++++....        ",
"                                            ....++++....        ",
"                                            ....++++....        ",
"                                            ....++++....        ",
"                                        ....++++....            ",
"                                        ....++++....            ",
"                                        ....++++....            ",
"                                        ....++++....            ",
"                                    ....++++....                ",
"                                    ....++++....                ",
"                                    ....++++....                ",
"                                    ....++++....                ",
"                                ....++++....                    ",
"                                ....++++....                    ",
"                                ....++++....                    ",
"                                ....++++....                    ",
"                @@@@....++++....++++....                        ",
"                @@@@....++++....++++....                        ",
"                @@@@....++++....++++....                        ",
"                @@@@....++++....++++....                        ",
"            ####$$$$@@@@....++++....                            ",
"            ####$$$$@@@@....++++....                            ",
"            ####$$$$@@@@....++++....                            ",
"            ####$$$$@@@@....++++....                            ",
"        ####$$$$        @@@@....++++                            ",
"        ####$$$$        @@@@....++++                            ",
"        ####$$$$        @@@@....++++                            ",
"        ####$$$$        @@@@....++++                            ",
"%%%%####$$$$        ####$$$$@@@@....                            ",
"%%%%####$$$$        ####$$$$@@@@....                            ",
"%%%%####$$$$        ####$$$$@@@@....                            ",
"%%%%####$$$$        ####$$$$@@@@....                            ",
"                ####$$$$        @@@@                            ",
"                ####$$$$        @@@@                            ",
"                ####$$$$        @@@@                            ",
"                ####$$$$        @@@@                            ",
"        %%%%####$$$$        ####$$$$                            ",
"        %%%%####$$$$        ####$$$$                            ",
"        %%%%####$$$$        ####$$$$                            ",
"        %%%%####$$$$        ####$$$$                            ",
"                        ####$$$$                                ",
"                        ####$$$$                                ",
"                        ####$$$$                                ",
"                        ####$$$$                                ",
"                %%%%####$$$$                                    ",
"                %%%%####$$$$                                    ",
"                %%%%####$$$$                                    ",
"                %%%%####$$$$                                    "};
