/* XPM */
static char * scroll_xpm[] = {
"32 32 4 1",
" 	c None",
".	c #2D2741",
"+	c #BB8170",
"@	c #F0E0D6",
"                                ",
"                                ",
"                                ",
"                                ",
"        ..........              ",
"        ..........              ",
"      ..++++++++++......        ",
"      ..++++++++++......        ",
"      ..++@@@@@@@@++++++......  ",
"      ..++@@@@@@@@++++++......  ",
"      ..++@@@@@@@@@@@@@@++++..  ",
"      ..++@@@@@@@@@@@@@@++++..  ",
"    ..++@@@@@@@@@@@@@@@@@@@@..  ",
"    ..++@@@@@@@@@@@@@@@@@@@@..  ",
"    ..++@@@@@@@@@@@@@@@@@@@@..  ",
"    ..++@@@@@@@@@@@@@@@@@@@@..  ",
"    ..++@@@@@@@@@@@@@@@@@@..    ",
"    ..++@@@@@@@@@@@@@@@@@@..    ",
"  ..++@@@@@@@@@@@@@@@@@@@@..    ",
"  ..++@@@@@@@@@@@@@@@@@@@@..    ",
"  ..++@@@@@@@@@@@@@@@@@@..      ",
"  ..++@@@@@@@@@@@@@@@@@@..      ",
"  ........@@@@@@@@@@@@@@..      ",
"  ........@@@@@@@@@@@@@@..      ",
"          ........@@@@@@..      ",
"          ........@@@@@@..      ",
"                  ......        ",
"                  ......        ",
"                                ",
"                                ",
"                                ",
"                                "};
